<mxfile host="app.diagrams.net" modified="2022-09-29T02:57:51.130Z" agent="5.0 (Windows NT 10.0; Win64; x64) AppleWebKit/537.36 (KHTML, like Gecko) Chrome/105.0.0.0 Safari/537.36" etag="ElfrtU8CLuU05CIEXxgt" version="20.3.7" type="github">
  <diagram id="vhuKOZHmp4u0GIGSvii6" name="Page-1">
    <mxGraphModel dx="2446" dy="884" grid="0" gridSize="10" guides="1" tooltips="1" connect="1" arrows="1" fold="1" page="0" pageScale="1" pageWidth="827" pageHeight="1169" math="0" shadow="0">
      <root>
        <mxCell id="0" />
        <mxCell id="1" parent="0" />
        <mxCell id="5sL8ATBp5mNtQugTuOd_-79" value="AWS Cloud" style="sketch=0;outlineConnect=0;gradientColor=none;html=1;whiteSpace=wrap;fontSize=12;fontStyle=0;shape=mxgraph.aws4.group;grIcon=mxgraph.aws4.group_aws_cloud;strokeColor=#858B94;fillColor=none;verticalAlign=top;align=left;spacingLeft=30;fontColor=#858B94;dashed=0;hachureGap=4;" vertex="1" parent="1">
          <mxGeometry x="-864" y="918" width="861" height="787" as="geometry" />
        </mxCell>
        <mxCell id="5sL8ATBp5mNtQugTuOd_-58" style="edgeStyle=none;curved=1;rounded=0;orthogonalLoop=1;jettySize=auto;html=1;exitX=1;exitY=0.75;exitDx=0;exitDy=0;endArrow=open;startSize=14;endSize=14;sourcePerimeterSpacing=8;targetPerimeterSpacing=8;" edge="1" parent="1" source="5sL8ATBp5mNtQugTuOd_-28">
          <mxGeometry relative="1" as="geometry">
            <mxPoint x="-249" y="309" as="targetPoint" />
            <Array as="points">
              <mxPoint x="-278" y="207" />
              <mxPoint x="-267" y="226" />
            </Array>
          </mxGeometry>
        </mxCell>
        <mxCell id="5sL8ATBp5mNtQugTuOd_-28" value="" style="rounded=0;whiteSpace=wrap;html=1;hachureGap=4;" vertex="1" parent="1">
          <mxGeometry x="-532" y="112" width="124.5" height="136" as="geometry" />
        </mxCell>
        <mxCell id="5sL8ATBp5mNtQugTuOd_-5" value="" style="sketch=0;points=[[0,0,0],[0.25,0,0],[0.5,0,0],[0.75,0,0],[1,0,0],[0,1,0],[0.25,1,0],[0.5,1,0],[0.75,1,0],[1,1,0],[0,0.25,0],[0,0.5,0],[0,0.75,0],[1,0.25,0],[1,0.5,0],[1,0.75,0]];outlineConnect=0;fontColor=#232F3E;gradientColor=#F54749;gradientDirection=north;fillColor=#C7131F;strokeColor=#ffffff;dashed=0;verticalLabelPosition=bottom;verticalAlign=top;align=center;html=1;fontSize=12;fontStyle=0;aspect=fixed;shape=mxgraph.aws4.resourceIcon;resIcon=mxgraph.aws4.cognito;hachureGap=4;" vertex="1" parent="1">
          <mxGeometry x="-166" y="-47" width="41" height="41" as="geometry" />
        </mxCell>
        <mxCell id="5sL8ATBp5mNtQugTuOd_-6" value="" style="outlineConnect=0;dashed=0;verticalLabelPosition=bottom;verticalAlign=top;align=center;html=1;shape=mxgraph.aws3.cognito;fillColor=#AD688B;gradientColor=none;hachureGap=4;" vertex="1" parent="1">
          <mxGeometry x="-226" y="-53" width="48" height="53" as="geometry" />
        </mxCell>
        <mxCell id="5sL8ATBp5mNtQugTuOd_-10" value="Authentication needed for write permissions" style="text;strokeColor=none;fillColor=none;html=1;align=center;verticalAlign=middle;whiteSpace=wrap;rounded=0;hachureGap=4;" vertex="1" parent="1">
          <mxGeometry x="-231" y="-121" width="98" height="49" as="geometry" />
        </mxCell>
        <mxCell id="5sL8ATBp5mNtQugTuOd_-12" value="" style="sketch=0;outlineConnect=0;fontColor=#232F3E;gradientColor=none;strokeColor=#232F3E;fillColor=#ffffff;dashed=0;verticalLabelPosition=bottom;verticalAlign=top;align=center;html=1;fontSize=12;fontStyle=0;aspect=fixed;shape=mxgraph.aws4.resourceIcon;resIcon=mxgraph.aws4.mobile_client;hachureGap=4;" vertex="1" parent="1">
          <mxGeometry x="-527" y="118" width="60" height="60" as="geometry" />
        </mxCell>
        <mxCell id="5sL8ATBp5mNtQugTuOd_-13" value="" style="sketch=0;outlineConnect=0;fontColor=#232F3E;gradientColor=none;strokeColor=#232F3E;fillColor=#ffffff;dashed=0;verticalLabelPosition=bottom;verticalAlign=top;align=center;html=1;fontSize=12;fontStyle=0;aspect=fixed;shape=mxgraph.aws4.resourceIcon;resIcon=mxgraph.aws4.client;hachureGap=4;" vertex="1" parent="1">
          <mxGeometry x="-473" y="120" width="60" height="60" as="geometry" />
        </mxCell>
        <mxCell id="5sL8ATBp5mNtQugTuOd_-14" value="" style="sketch=0;pointerEvents=1;shadow=0;dashed=0;html=1;strokeColor=none;fillColor=#505050;labelPosition=center;verticalLabelPosition=bottom;verticalAlign=top;outlineConnect=0;align=center;shape=mxgraph.office.devices.tv;hachureGap=4;" vertex="1" parent="1">
          <mxGeometry x="-501" y="186" width="69" height="55" as="geometry" />
        </mxCell>
        <mxCell id="5sL8ATBp5mNtQugTuOd_-16" value="Internet" style="sketch=0;outlineConnect=0;fontColor=#232F3E;gradientColor=none;strokeColor=#232F3E;fillColor=#ffffff;dashed=0;verticalLabelPosition=bottom;verticalAlign=top;align=center;html=1;fontSize=12;fontStyle=0;aspect=fixed;shape=mxgraph.aws4.resourceIcon;resIcon=mxgraph.aws4.internet;hachureGap=4;" vertex="1" parent="1">
          <mxGeometry x="-693" y="133" width="101" height="101" as="geometry" />
        </mxCell>
        <mxCell id="5sL8ATBp5mNtQugTuOd_-17" value="Internet Gateway" style="outlineConnect=0;dashed=0;verticalLabelPosition=bottom;verticalAlign=top;align=center;html=1;shape=mxgraph.aws3.internet_gateway;fillColor=#F58536;gradientColor=none;hachureGap=4;" vertex="1" parent="1">
          <mxGeometry x="-150" y="100" width="69" height="72" as="geometry" />
        </mxCell>
        <mxCell id="5sL8ATBp5mNtQugTuOd_-20" value="Network Load Balancer&lt;br&gt;" style="outlineConnect=0;dashed=0;verticalLabelPosition=bottom;verticalAlign=top;align=center;html=1;shape=mxgraph.aws3.classic_load_balancer;fillColor=#F58536;gradientColor=none;hachureGap=4;" vertex="1" parent="1">
          <mxGeometry x="27" y="100" width="69" height="72" as="geometry" />
        </mxCell>
        <mxCell id="5sL8ATBp5mNtQugTuOd_-22" value="EC2 Instances&lt;br&gt;Reserved" style="sketch=0;points=[[0,0,0],[0.25,0,0],[0.5,0,0],[0.75,0,0],[1,0,0],[0,1,0],[0.25,1,0],[0.5,1,0],[0.75,1,0],[1,1,0],[0,0.25,0],[0,0.5,0],[0,0.75,0],[1,0.25,0],[1,0.5,0],[1,0.75,0]];outlineConnect=0;fontColor=#232F3E;gradientColor=#F78E04;gradientDirection=north;fillColor=#D05C17;strokeColor=#ffffff;dashed=0;verticalLabelPosition=bottom;verticalAlign=top;align=center;html=1;fontSize=12;fontStyle=0;aspect=fixed;shape=mxgraph.aws4.resourceIcon;resIcon=mxgraph.aws4.ec2;hachureGap=4;" vertex="1" parent="1">
          <mxGeometry x="196" y="91" width="78" height="78" as="geometry" />
        </mxCell>
        <mxCell id="5sL8ATBp5mNtQugTuOd_-21" value="" style="outlineConnect=0;dashed=0;verticalLabelPosition=bottom;verticalAlign=top;align=center;html=1;shape=mxgraph.aws3.auto_scaling;fillColor=#F58534;gradientColor=none;hachureGap=4;" vertex="1" parent="1">
          <mxGeometry x="154" y="54" width="63" height="49" as="geometry" />
        </mxCell>
        <mxCell id="5sL8ATBp5mNtQugTuOd_-25" value="YouTube Content&amp;nbsp;&lt;br&gt;Creators" style="shape=image;html=1;verticalAlign=top;verticalLabelPosition=bottom;labelBackgroundColor=#ffffff;imageAspect=0;aspect=fixed;image=https://cdn4.iconfinder.com/data/icons/evil-icons-user-interface/64/pen-128.png;hachureGap=4;" vertex="1" parent="1">
          <mxGeometry x="-846.5" y="37" width="46" height="46" as="geometry" />
        </mxCell>
        <mxCell id="5sL8ATBp5mNtQugTuOd_-26" value="YouTube Viewers&lt;br&gt;" style="shape=image;html=1;verticalAlign=top;verticalLabelPosition=bottom;labelBackgroundColor=#ffffff;imageAspect=0;aspect=fixed;image=https://cdn3.iconfinder.com/data/icons/minimalisticons/28/eye1-128.png;hachureGap=4;" vertex="1" parent="1">
          <mxGeometry x="-840" y="269" width="61" height="61" as="geometry" />
        </mxCell>
        <mxCell id="5sL8ATBp5mNtQugTuOd_-27" value="" style="edgeStyle=none;orthogonalLoop=1;jettySize=auto;html=1;rounded=0;endArrow=open;startSize=14;endSize=14;sourcePerimeterSpacing=8;targetPerimeterSpacing=8;curved=1;" edge="1" parent="1">
          <mxGeometry width="120" relative="1" as="geometry">
            <mxPoint x="-756" y="281" as="sourcePoint" />
            <mxPoint x="-689" y="219" as="targetPoint" />
            <Array as="points" />
          </mxGeometry>
        </mxCell>
        <mxCell id="5sL8ATBp5mNtQugTuOd_-30" value="YouTube Application&lt;br&gt;Front-End" style="text;html=1;align=center;verticalAlign=middle;resizable=0;points=[];autosize=1;strokeColor=none;fillColor=none;hachureGap=4;" vertex="1" parent="1">
          <mxGeometry x="-532.75" y="248" width="127" height="41" as="geometry" />
        </mxCell>
        <mxCell id="5sL8ATBp5mNtQugTuOd_-31" value="" style="edgeStyle=none;orthogonalLoop=1;jettySize=auto;html=1;rounded=0;endArrow=open;startSize=14;endSize=14;sourcePerimeterSpacing=8;targetPerimeterSpacing=8;curved=1;" edge="1" parent="1">
          <mxGeometry width="120" relative="1" as="geometry">
            <mxPoint x="-763" y="105" as="sourcePoint" />
            <mxPoint x="-698" y="162" as="targetPoint" />
            <Array as="points" />
          </mxGeometry>
        </mxCell>
        <mxCell id="5sL8ATBp5mNtQugTuOd_-32" value="" style="edgeStyle=none;orthogonalLoop=1;jettySize=auto;html=1;rounded=0;endArrow=open;startSize=14;endSize=14;sourcePerimeterSpacing=8;targetPerimeterSpacing=8;curved=1;" edge="1" parent="1">
          <mxGeometry width="120" relative="1" as="geometry">
            <mxPoint x="-376" y="139" as="sourcePoint" />
            <mxPoint x="-255" y="139" as="targetPoint" />
            <Array as="points" />
          </mxGeometry>
        </mxCell>
        <mxCell id="5sL8ATBp5mNtQugTuOd_-33" value="" style="sketch=0;points=[[0,0,0],[0.25,0,0],[0.5,0,0],[0.75,0,0],[1,0,0],[0,1,0],[0.25,1,0],[0.5,1,0],[0.75,1,0],[1,1,0],[0,0.25,0],[0,0.5,0],[0,0.75,0],[1,0.25,0],[1,0.5,0],[1,0.75,0]];outlineConnect=0;fontColor=#232F3E;gradientColor=#945DF2;gradientDirection=north;fillColor=#5A30B5;strokeColor=#ffffff;dashed=0;verticalLabelPosition=bottom;verticalAlign=top;align=center;html=1;fontSize=12;fontStyle=0;aspect=fixed;shape=mxgraph.aws4.resourceIcon;resIcon=mxgraph.aws4.route_53;hachureGap=4;" vertex="1" parent="1">
          <mxGeometry x="-215" y="-271" width="78" height="78" as="geometry" />
        </mxCell>
        <mxCell id="5sL8ATBp5mNtQugTuOd_-62" style="edgeStyle=none;curved=1;rounded=0;orthogonalLoop=1;jettySize=auto;html=1;exitX=1;exitY=0.5;exitDx=0;exitDy=0;exitPerimeter=0;endArrow=open;startSize=14;endSize=14;sourcePerimeterSpacing=8;targetPerimeterSpacing=8;" edge="1" parent="1" source="5sL8ATBp5mNtQugTuOd_-34">
          <mxGeometry relative="1" as="geometry">
            <mxPoint x="-5" y="367" as="targetPoint" />
          </mxGeometry>
        </mxCell>
        <mxCell id="5sL8ATBp5mNtQugTuOd_-34" value="" style="sketch=0;points=[[0,0,0],[0.25,0,0],[0.5,0,0],[0.75,0,0],[1,0,0],[0,1,0],[0.25,1,0],[0.5,1,0],[0.75,1,0],[1,1,0],[0,0.25,0],[0,0.5,0],[0,0.75,0],[1,0.25,0],[1,0.5,0],[1,0.75,0]];outlineConnect=0;fontColor=#232F3E;gradientColor=#945DF2;gradientDirection=north;fillColor=#5A30B5;strokeColor=#ffffff;dashed=0;verticalLabelPosition=bottom;verticalAlign=top;align=center;html=1;fontSize=12;fontStyle=0;aspect=fixed;shape=mxgraph.aws4.resourceIcon;resIcon=mxgraph.aws4.cloudfront;hachureGap=4;" vertex="1" parent="1">
          <mxGeometry x="-236" y="328" width="78" height="78" as="geometry" />
        </mxCell>
        <mxCell id="5sL8ATBp5mNtQugTuOd_-35" value="Amazon Neptune&lt;br&gt;-3AZ 15 read replicas&lt;br&gt;-recommendations&amp;nbsp;" style="sketch=0;points=[[0,0,0],[0.25,0,0],[0.5,0,0],[0.75,0,0],[1,0,0],[0,1,0],[0.25,1,0],[0.5,1,0],[0.75,1,0],[1,1,0],[0,0.25,0],[0,0.5,0],[0,0.75,0],[1,0.25,0],[1,0.5,0],[1,0.75,0]];outlineConnect=0;fontColor=#232F3E;gradientColor=#4D72F3;gradientDirection=north;fillColor=#3334B9;strokeColor=#ffffff;dashed=0;verticalLabelPosition=bottom;verticalAlign=top;align=center;html=1;fontSize=12;fontStyle=0;aspect=fixed;shape=mxgraph.aws4.resourceIcon;resIcon=mxgraph.aws4.neptune;hachureGap=4;" vertex="1" parent="1">
          <mxGeometry x="954" y="358" width="78" height="78" as="geometry" />
        </mxCell>
        <mxCell id="5sL8ATBp5mNtQugTuOd_-36" value="S3 - Input" style="sketch=0;points=[[0,0,0],[0.25,0,0],[0.5,0,0],[0.75,0,0],[1,0,0],[0,1,0],[0.25,1,0],[0.5,1,0],[0.75,1,0],[1,1,0],[0,0.25,0],[0,0.5,0],[0,0.75,0],[1,0.25,0],[1,0.5,0],[1,0.75,0]];outlineConnect=0;fontColor=#232F3E;gradientColor=#60A337;gradientDirection=north;fillColor=#277116;strokeColor=#ffffff;dashed=0;verticalLabelPosition=bottom;verticalAlign=top;align=center;html=1;fontSize=12;fontStyle=0;aspect=fixed;shape=mxgraph.aws4.resourceIcon;resIcon=mxgraph.aws4.s3;hachureGap=4;" vertex="1" parent="1">
          <mxGeometry x="351" y="-164" width="78" height="78" as="geometry" />
        </mxCell>
        <mxCell id="5sL8ATBp5mNtQugTuOd_-37" value="AWS Batch&lt;br&gt;" style="sketch=0;points=[[0,0,0],[0.25,0,0],[0.5,0,0],[0.75,0,0],[1,0,0],[0,1,0],[0.25,1,0],[0.5,1,0],[0.75,1,0],[1,1,0],[0,0.25,0],[0,0.5,0],[0,0.75,0],[1,0.25,0],[1,0.5,0],[1,0.75,0]];outlineConnect=0;fontColor=#232F3E;gradientColor=#F78E04;gradientDirection=north;fillColor=#D05C17;strokeColor=#ffffff;dashed=0;verticalLabelPosition=bottom;verticalAlign=top;align=center;html=1;fontSize=12;fontStyle=0;aspect=fixed;shape=mxgraph.aws4.resourceIcon;resIcon=mxgraph.aws4.batch;hachureGap=4;" vertex="1" parent="1">
          <mxGeometry x="187" y="-234" width="78" height="78" as="geometry" />
        </mxCell>
        <mxCell id="5sL8ATBp5mNtQugTuOd_-38" value="Creating Thumbnails&amp;nbsp;" style="text;strokeColor=none;fillColor=none;html=1;align=center;verticalAlign=middle;whiteSpace=wrap;rounded=0;hachureGap=4;" vertex="1" parent="1">
          <mxGeometry x="178" y="-283" width="90" height="43" as="geometry" />
        </mxCell>
        <mxCell id="5sL8ATBp5mNtQugTuOd_-41" value="" style="outlineConnect=0;dashed=0;verticalLabelPosition=bottom;verticalAlign=top;align=center;html=1;shape=mxgraph.aws3.dynamo_db;fillColor=#2E73B8;gradientColor=none;hachureGap=4;" vertex="1" parent="1">
          <mxGeometry x="463" y="44" width="72" height="81" as="geometry" />
        </mxCell>
        <mxCell id="5sL8ATBp5mNtQugTuOd_-39" value="Dynamo DB" style="outlineConnect=0;dashed=0;verticalLabelPosition=bottom;verticalAlign=top;align=center;html=1;shape=mxgraph.aws3.dynamo_db;fillColor=#2E73B8;gradientColor=none;hachureGap=4;" vertex="1" parent="1">
          <mxGeometry x="473" y="60" width="72" height="81" as="geometry" />
        </mxCell>
        <mxCell id="5sL8ATBp5mNtQugTuOd_-44" value="Autoscaling&amp;nbsp;&lt;br&gt;(On Demand EC2)" style="text;html=1;align=center;verticalAlign=middle;resizable=0;points=[];autosize=1;strokeColor=none;fillColor=none;hachureGap=4;" vertex="1" parent="1">
          <mxGeometry x="127" y="11" width="117" height="41" as="geometry" />
        </mxCell>
        <mxCell id="5sL8ATBp5mNtQugTuOd_-46" value="Video file&lt;br&gt;Video Tags&lt;br&gt;Thumbnail Generation&lt;br&gt;Multi-res versioning" style="text;html=1;align=center;verticalAlign=middle;resizable=0;points=[];autosize=1;strokeColor=none;fillColor=none;hachureGap=4;" vertex="1" parent="1">
          <mxGeometry x="654.5" y="-150" width="137" height="70" as="geometry" />
        </mxCell>
        <mxCell id="5sL8ATBp5mNtQugTuOd_-49" value="" style="sketch=0;points=[[0,0,0],[0.25,0,0],[0.5,0,0],[0.75,0,0],[1,0,0],[0,1,0],[0.25,1,0],[0.5,1,0],[0.75,1,0],[1,1,0],[0,0.25,0],[0,0.5,0],[0,0.75,0],[1,0.25,0],[1,0.5,0],[1,0.75,0]];outlineConnect=0;fontColor=#232F3E;gradientColor=#F78E04;gradientDirection=north;fillColor=#D05C17;strokeColor=#ffffff;dashed=0;verticalLabelPosition=bottom;verticalAlign=top;align=center;html=1;fontSize=12;fontStyle=0;aspect=fixed;shape=mxgraph.aws4.resourceIcon;resIcon=mxgraph.aws4.elemental_mediaconvert;hachureGap=4;" vertex="1" parent="1">
          <mxGeometry x="684" y="-74" width="78" height="78" as="geometry" />
        </mxCell>
        <mxCell id="5sL8ATBp5mNtQugTuOd_-52" value="Video Files&lt;br&gt;Video Tags&lt;br&gt;Custom Thumbnail" style="text;html=1;align=center;verticalAlign=middle;resizable=0;points=[];autosize=1;strokeColor=none;fillColor=none;hachureGap=4;" vertex="1" parent="1">
          <mxGeometry x="331" y="-232" width="118" height="55" as="geometry" />
        </mxCell>
        <mxCell id="5sL8ATBp5mNtQugTuOd_-53" value="Metadata e.g." style="text;strokeColor=none;fillColor=none;html=1;align=center;verticalAlign=middle;whiteSpace=wrap;rounded=0;hachureGap=4;" vertex="1" parent="1">
          <mxGeometry x="436.5" width="125" height="30" as="geometry" />
        </mxCell>
        <mxCell id="5sL8ATBp5mNtQugTuOd_-54" value="S3 - Output/Public Read" style="sketch=0;points=[[0,0,0],[0.25,0,0],[0.5,0,0],[0.75,0,0],[1,0,0],[0,1,0],[0.25,1,0],[0.5,1,0],[0.75,1,0],[1,1,0],[0,0.25,0],[0,0.5,0],[0,0.75,0],[1,0.25,0],[1,0.5,0],[1,0.75,0]];outlineConnect=0;fontColor=#232F3E;gradientColor=#60A337;gradientDirection=north;fillColor=#277116;strokeColor=#ffffff;dashed=0;verticalLabelPosition=bottom;verticalAlign=top;align=center;html=1;fontSize=12;fontStyle=0;aspect=fixed;shape=mxgraph.aws4.resourceIcon;resIcon=mxgraph.aws4.s3;hachureGap=4;" vertex="1" parent="1">
          <mxGeometry x="32" y="330" width="78" height="78" as="geometry" />
        </mxCell>
        <mxCell id="5sL8ATBp5mNtQugTuOd_-63" value="YouTube Viewers&lt;br&gt;" style="shape=image;html=1;verticalAlign=top;verticalLabelPosition=bottom;labelBackgroundColor=#ffffff;imageAspect=0;aspect=fixed;image=https://cdn3.iconfinder.com/data/icons/minimalisticons/28/eye1-128.png;hachureGap=4;" vertex="1" parent="1">
          <mxGeometry x="-693" y="593" width="61" height="61" as="geometry" />
        </mxCell>
        <mxCell id="5sL8ATBp5mNtQugTuOd_-64" value="YouTube Content&amp;nbsp;&lt;br&gt;Creators" style="shape=image;html=1;verticalAlign=top;verticalLabelPosition=bottom;labelBackgroundColor=#ffffff;imageAspect=0;aspect=fixed;image=https://cdn4.iconfinder.com/data/icons/evil-icons-user-interface/64/pen-128.png;hachureGap=4;" vertex="1" parent="1">
          <mxGeometry x="-347" y="593" width="46" height="46" as="geometry" />
        </mxCell>
        <mxCell id="5sL8ATBp5mNtQugTuOd_-81" style="edgeStyle=none;curved=1;rounded=0;orthogonalLoop=1;jettySize=auto;html=1;exitX=0.5;exitY=1;exitDx=0;exitDy=0;endArrow=open;startSize=14;endSize=14;sourcePerimeterSpacing=8;targetPerimeterSpacing=8;entryX=0.5;entryY=0;entryDx=0;entryDy=0;entryPerimeter=0;" edge="1" parent="1" source="5sL8ATBp5mNtQugTuOd_-65" target="5sL8ATBp5mNtQugTuOd_-70">
          <mxGeometry relative="1" as="geometry">
            <mxPoint x="-494" y="910" as="targetPoint" />
          </mxGeometry>
        </mxCell>
        <mxCell id="5sL8ATBp5mNtQugTuOd_-65" value="" style="rounded=0;whiteSpace=wrap;html=1;hachureGap=4;" vertex="1" parent="1">
          <mxGeometry x="-554.25" y="724" width="124.5" height="136" as="geometry" />
        </mxCell>
        <mxCell id="5sL8ATBp5mNtQugTuOd_-66" value="" style="sketch=0;outlineConnect=0;fontColor=#232F3E;gradientColor=none;strokeColor=#232F3E;fillColor=#ffffff;dashed=0;verticalLabelPosition=bottom;verticalAlign=top;align=center;html=1;fontSize=12;fontStyle=0;aspect=fixed;shape=mxgraph.aws4.resourceIcon;resIcon=mxgraph.aws4.mobile_client;hachureGap=4;" vertex="1" parent="1">
          <mxGeometry x="-549.25" y="730" width="60" height="60" as="geometry" />
        </mxCell>
        <mxCell id="5sL8ATBp5mNtQugTuOd_-67" value="" style="sketch=0;outlineConnect=0;fontColor=#232F3E;gradientColor=none;strokeColor=#232F3E;fillColor=#ffffff;dashed=0;verticalLabelPosition=bottom;verticalAlign=top;align=center;html=1;fontSize=12;fontStyle=0;aspect=fixed;shape=mxgraph.aws4.resourceIcon;resIcon=mxgraph.aws4.client;hachureGap=4;" vertex="1" parent="1">
          <mxGeometry x="-495.25" y="732" width="60" height="60" as="geometry" />
        </mxCell>
        <mxCell id="5sL8ATBp5mNtQugTuOd_-68" value="" style="sketch=0;pointerEvents=1;shadow=0;dashed=0;html=1;strokeColor=none;fillColor=#505050;labelPosition=center;verticalLabelPosition=bottom;verticalAlign=top;outlineConnect=0;align=center;shape=mxgraph.office.devices.tv;hachureGap=4;" vertex="1" parent="1">
          <mxGeometry x="-523.25" y="798" width="69" height="55" as="geometry" />
        </mxCell>
        <mxCell id="5sL8ATBp5mNtQugTuOd_-70" value="Amazon Cloudfront&lt;br&gt;-&lt;br&gt;Dynamic &amp;amp; Static&lt;br&gt;Content Delivery" style="sketch=0;points=[[0,0,0],[0.25,0,0],[0.5,0,0],[0.75,0,0],[1,0,0],[0,1,0],[0.25,1,0],[0.5,1,0],[0.75,1,0],[1,1,0],[0,0.25,0],[0,0.5,0],[0,0.75,0],[1,0.25,0],[1,0.5,0],[1,0.75,0]];outlineConnect=0;fontColor=#232F3E;gradientColor=#945DF2;gradientDirection=north;fillColor=#5A30B5;strokeColor=#ffffff;dashed=0;verticalLabelPosition=bottom;verticalAlign=top;align=center;html=1;fontSize=12;fontStyle=0;aspect=fixed;shape=mxgraph.aws4.resourceIcon;resIcon=mxgraph.aws4.cloudfront;hachureGap=4;" vertex="1" parent="1">
          <mxGeometry x="-521" y="974" width="58" height="58" as="geometry" />
        </mxCell>
        <mxCell id="5sL8ATBp5mNtQugTuOd_-71" value="VPC" style="points=[[0,0],[0.25,0],[0.5,0],[0.75,0],[1,0],[1,0.25],[1,0.5],[1,0.75],[1,1],[0.75,1],[0.5,1],[0.25,1],[0,1],[0,0.75],[0,0.5],[0,0.25]];outlineConnect=0;gradientColor=none;html=1;whiteSpace=wrap;fontSize=12;fontStyle=0;container=1;pointerEvents=0;collapsible=0;recursiveResize=0;shape=mxgraph.aws4.group;grIcon=mxgraph.aws4.group_vpc;strokeColor=#248814;fillColor=none;verticalAlign=top;align=left;spacingLeft=30;fontColor=#AAB7B8;dashed=0;hachureGap=4;" vertex="1" parent="1">
          <mxGeometry x="-706.5" y="1193" width="532" height="490" as="geometry" />
        </mxCell>
        <mxCell id="5sL8ATBp5mNtQugTuOd_-73" value="Public subnet" style="points=[[0,0],[0.25,0],[0.5,0],[0.75,0],[1,0],[1,0.25],[1,0.5],[1,0.75],[1,1],[0.75,1],[0.5,1],[0.25,1],[0,1],[0,0.75],[0,0.5],[0,0.25]];outlineConnect=0;gradientColor=none;html=1;whiteSpace=wrap;fontSize=12;fontStyle=0;container=1;pointerEvents=0;collapsible=0;recursiveResize=0;shape=mxgraph.aws4.group;grIcon=mxgraph.aws4.group_security_group;grStroke=0;strokeColor=#248814;fillColor=#E9F3E6;verticalAlign=top;align=left;spacingLeft=30;fontColor=#248814;dashed=0;hachureGap=4;" vertex="1" parent="5sL8ATBp5mNtQugTuOd_-71">
          <mxGeometry x="24" y="76" width="490" height="130" as="geometry" />
        </mxCell>
        <mxCell id="5sL8ATBp5mNtQugTuOd_-74" value="Private subnet" style="points=[[0,0],[0.25,0],[0.5,0],[0.75,0],[1,0],[1,0.25],[1,0.5],[1,0.75],[1,1],[0.75,1],[0.5,1],[0.25,1],[0,1],[0,0.75],[0,0.5],[0,0.25]];outlineConnect=0;gradientColor=none;html=1;whiteSpace=wrap;fontSize=12;fontStyle=0;container=1;pointerEvents=0;collapsible=0;recursiveResize=0;shape=mxgraph.aws4.group;grIcon=mxgraph.aws4.group_security_group;grStroke=0;strokeColor=#147EBA;fillColor=#E6F2F8;verticalAlign=top;align=left;spacingLeft=30;fontColor=#147EBA;dashed=0;hachureGap=4;" vertex="1" parent="5sL8ATBp5mNtQugTuOd_-71">
          <mxGeometry x="24" y="232" width="487" height="237" as="geometry" />
        </mxCell>
        <mxCell id="5sL8ATBp5mNtQugTuOd_-104" value="EC2 Instances&lt;br&gt;Reserved&lt;br&gt;-&lt;br&gt;Backend/App Layer" style="sketch=0;points=[[0,0,0],[0.25,0,0],[0.5,0,0],[0.75,0,0],[1,0,0],[0,1,0],[0.25,1,0],[0.5,1,0],[0.75,1,0],[1,1,0],[0,0.25,0],[0,0.5,0],[0,0.75,0],[1,0.25,0],[1,0.5,0],[1,0.75,0]];outlineConnect=0;fontColor=#232F3E;gradientColor=#F78E04;gradientDirection=north;fillColor=#D05C17;strokeColor=#ffffff;dashed=0;verticalLabelPosition=bottom;verticalAlign=top;align=center;html=1;fontSize=12;fontStyle=0;aspect=fixed;shape=mxgraph.aws4.resourceIcon;resIcon=mxgraph.aws4.ec2;hachureGap=4;" vertex="1" parent="5sL8ATBp5mNtQugTuOd_-74">
          <mxGeometry x="202.5" y="22" width="53" height="53" as="geometry" />
        </mxCell>
        <mxCell id="5sL8ATBp5mNtQugTuOd_-106" value="Autoscaling&amp;nbsp;&lt;br&gt;(On Demand EC2)" style="text;html=1;align=center;verticalAlign=middle;resizable=0;points=[];autosize=1;strokeColor=none;fillColor=none;hachureGap=4;" vertex="1" parent="5sL8ATBp5mNtQugTuOd_-74">
          <mxGeometry x="311.5" y="2" width="117" height="41" as="geometry" />
        </mxCell>
        <mxCell id="5sL8ATBp5mNtQugTuOd_-111" value="" style="sketch=0;points=[[0,0,0],[0.25,0,0],[0.5,0,0],[0.75,0,0],[1,0,0],[0,1,0],[0.25,1,0],[0.5,1,0],[0.75,1,0],[1,1,0],[0,0.25,0],[0,0.5,0],[0,0.75,0],[1,0.25,0],[1,0.5,0],[1,0.75,0]];outlineConnect=0;fontColor=#232F3E;gradientColor=#F78E04;gradientDirection=north;fillColor=#D05C17;strokeColor=#ffffff;dashed=0;verticalLabelPosition=bottom;verticalAlign=top;align=center;html=1;fontSize=12;fontStyle=0;aspect=fixed;shape=mxgraph.aws4.resourceIcon;resIcon=mxgraph.aws4.ec2;hachureGap=4;" vertex="1" parent="5sL8ATBp5mNtQugTuOd_-74">
          <mxGeometry x="343.5" y="45" width="33" height="33" as="geometry" />
        </mxCell>
        <mxCell id="5sL8ATBp5mNtQugTuOd_-112" value="" style="sketch=0;points=[[0,0,0],[0.25,0,0],[0.5,0,0],[0.75,0,0],[1,0,0],[0,1,0],[0.25,1,0],[0.5,1,0],[0.75,1,0],[1,1,0],[0,0.25,0],[0,0.5,0],[0,0.75,0],[1,0.25,0],[1,0.5,0],[1,0.75,0]];outlineConnect=0;fontColor=#232F3E;gradientColor=#F78E04;gradientDirection=north;fillColor=#D05C17;strokeColor=#ffffff;dashed=0;verticalLabelPosition=bottom;verticalAlign=top;align=center;html=1;fontSize=12;fontStyle=0;aspect=fixed;shape=mxgraph.aws4.resourceIcon;resIcon=mxgraph.aws4.ec2;hachureGap=4;" vertex="1" parent="5sL8ATBp5mNtQugTuOd_-74">
          <mxGeometry x="383.5" y="45" width="33" height="33" as="geometry" />
        </mxCell>
        <mxCell id="5sL8ATBp5mNtQugTuOd_-72" value="Internet Gateway" style="outlineConnect=0;dashed=0;verticalLabelPosition=bottom;verticalAlign=top;align=center;html=1;shape=mxgraph.aws3.internet_gateway;fillColor=#F58536;gradientColor=none;hachureGap=4;" vertex="1" parent="1">
          <mxGeometry x="-477.5" y="1165" width="48" height="53" as="geometry" />
        </mxCell>
        <mxCell id="5sL8ATBp5mNtQugTuOd_-69" value="Mutli Device&lt;br&gt;(Mobile App, &lt;br&gt;Web browser, TV)" style="text;html=1;align=center;verticalAlign=middle;resizable=0;points=[];autosize=1;strokeColor=none;fillColor=none;hachureGap=4;" vertex="1" parent="1">
          <mxGeometry x="-676" y="768" width="114" height="55" as="geometry" />
        </mxCell>
        <mxCell id="5sL8ATBp5mNtQugTuOd_-83" value="" style="edgeStyle=none;orthogonalLoop=1;jettySize=auto;html=1;rounded=0;endArrow=open;startSize=14;endSize=14;sourcePerimeterSpacing=8;targetPerimeterSpacing=8;curved=1;" edge="1" parent="1">
          <mxGeometry width="120" relative="1" as="geometry">
            <mxPoint x="-492" y="903" as="sourcePoint" />
            <mxPoint x="-292" y="961" as="targetPoint" />
            <Array as="points">
              <mxPoint x="-322" y="903" />
              <mxPoint x="-292" y="903" />
              <mxPoint x="-292" y="938" />
            </Array>
          </mxGeometry>
        </mxCell>
        <mxCell id="5sL8ATBp5mNtQugTuOd_-84" value="Route 53&lt;br&gt;-&amp;nbsp;&lt;br&gt;DNS registry&lt;br&gt;Traffic routing" style="sketch=0;points=[[0,0,0],[0.25,0,0],[0.5,0,0],[0.75,0,0],[1,0,0],[0,1,0],[0.25,1,0],[0.5,1,0],[0.75,1,0],[1,1,0],[0,0.25,0],[0,0.5,0],[0,0.75,0],[1,0.25,0],[1,0.5,0],[1,0.75,0]];outlineConnect=0;fontColor=#232F3E;gradientColor=#945DF2;gradientDirection=north;fillColor=#5A30B5;strokeColor=#ffffff;dashed=0;verticalLabelPosition=bottom;verticalAlign=top;align=center;html=1;fontSize=12;fontStyle=0;aspect=fixed;shape=mxgraph.aws4.resourceIcon;resIcon=mxgraph.aws4.route_53;hachureGap=4;" vertex="1" parent="1">
          <mxGeometry x="-318" y="969" width="59" height="59" as="geometry" />
        </mxCell>
        <mxCell id="5sL8ATBp5mNtQugTuOd_-85" value="Cognito&lt;br&gt;-&lt;br&gt;Authenticate Youtube&lt;br&gt;Users" style="sketch=0;points=[[0,0,0],[0.25,0,0],[0.5,0,0],[0.75,0,0],[1,0,0],[0,1,0],[0.25,1,0],[0.5,1,0],[0.75,1,0],[1,1,0],[0,0.25,0],[0,0.5,0],[0,0.75,0],[1,0.25,0],[1,0.5,0],[1,0.75,0]];outlineConnect=0;fontColor=#232F3E;gradientColor=#F54749;gradientDirection=north;fillColor=#C7131F;strokeColor=#ffffff;dashed=0;verticalLabelPosition=bottom;verticalAlign=top;align=center;html=1;fontSize=12;fontStyle=0;aspect=fixed;shape=mxgraph.aws4.resourceIcon;resIcon=mxgraph.aws4.cognito;hachureGap=4;" vertex="1" parent="1">
          <mxGeometry x="-710" y="988" width="52" height="52" as="geometry" />
        </mxCell>
        <mxCell id="5sL8ATBp5mNtQugTuOd_-90" value="" style="edgeStyle=none;orthogonalLoop=1;jettySize=auto;html=1;rounded=0;endArrow=open;startSize=14;endSize=14;sourcePerimeterSpacing=8;targetPerimeterSpacing=8;curved=1;entryX=0.5;entryY=0;entryDx=0;entryDy=0;entryPerimeter=0;" edge="1" parent="1" target="5sL8ATBp5mNtQugTuOd_-85">
          <mxGeometry width="120" relative="1" as="geometry">
            <mxPoint x="-492" y="902" as="sourcePoint" />
            <mxPoint x="-552" y="960" as="targetPoint" />
            <Array as="points">
              <mxPoint x="-667" y="904" />
              <mxPoint x="-684" y="904" />
              <mxPoint x="-684" y="920" />
            </Array>
          </mxGeometry>
        </mxCell>
        <mxCell id="5sL8ATBp5mNtQugTuOd_-92" value="Application Load&lt;br&gt;Balancer" style="outlineConnect=0;dashed=0;verticalLabelPosition=bottom;verticalAlign=top;align=center;html=1;shape=mxgraph.aws3.application_load_balancer;fillColor=#F58534;gradientColor=none;hachureGap=4;" vertex="1" parent="1">
          <mxGeometry x="-477" y="1293" width="50" height="49" as="geometry" />
        </mxCell>
        <mxCell id="5sL8ATBp5mNtQugTuOd_-93" value="Lambda function&lt;br&gt;-&lt;br&gt;" style="sketch=0;points=[[0,0,0],[0.25,0,0],[0.5,0,0],[0.75,0,0],[1,0,0],[0,1,0],[0.25,1,0],[0.5,1,0],[0.75,1,0],[1,1,0],[0,0.25,0],[0,0.5,0],[0,0.75,0],[1,0.25,0],[1,0.5,0],[1,0.75,0]];outlineConnect=0;fontColor=#232F3E;gradientColor=#F78E04;gradientDirection=north;fillColor=#D05C17;strokeColor=#ffffff;dashed=0;verticalLabelPosition=bottom;verticalAlign=top;align=center;html=1;fontSize=12;fontStyle=0;aspect=fixed;shape=mxgraph.aws4.resourceIcon;resIcon=mxgraph.aws4.lambda;hachureGap=4;" vertex="1" parent="1">
          <mxGeometry x="-109" y="1370" width="51" height="51" as="geometry" />
        </mxCell>
        <mxCell id="5sL8ATBp5mNtQugTuOd_-94" value="Multi-AZ" style="text;html=1;strokeColor=none;fillColor=none;align=center;verticalAlign=middle;whiteSpace=wrap;rounded=0;hachureGap=4;" vertex="1" parent="1">
          <mxGeometry x="-234.5" y="1163" width="60" height="30" as="geometry" />
        </mxCell>
        <mxCell id="5sL8ATBp5mNtQugTuOd_-95" value="S3&lt;br&gt;-&lt;br&gt;Input&lt;br&gt;Uploading Video &amp;amp;&lt;br&gt;Data" style="sketch=0;points=[[0,0,0],[0.25,0,0],[0.5,0,0],[0.75,0,0],[1,0,0],[0,1,0],[0.25,1,0],[0.5,1,0],[0.75,1,0],[1,1,0],[0,0.25,0],[0,0.5,0],[0,0.75,0],[1,0.25,0],[1,0.5,0],[1,0.75,0]];outlineConnect=0;fontColor=#232F3E;gradientColor=#60A337;gradientDirection=north;fillColor=#277116;strokeColor=#ffffff;dashed=0;verticalLabelPosition=bottom;verticalAlign=top;align=center;html=1;fontSize=12;fontStyle=0;aspect=fixed;shape=mxgraph.aws4.resourceIcon;resIcon=mxgraph.aws4.s3;hachureGap=4;" vertex="1" parent="1">
          <mxGeometry x="-107" y="1181" width="56" height="56" as="geometry" />
        </mxCell>
        <mxCell id="5sL8ATBp5mNtQugTuOd_-96" value="Video Files&lt;br&gt;Video Tags&lt;br&gt;Custom Thumbnail" style="text;html=1;align=center;verticalAlign=middle;resizable=0;points=[];autosize=1;strokeColor=none;fillColor=none;hachureGap=4;" vertex="1" parent="1">
          <mxGeometry x="12" y="1184" width="118" height="55" as="geometry" />
        </mxCell>
        <mxCell id="5sL8ATBp5mNtQugTuOd_-101" value="" style="edgeStyle=none;orthogonalLoop=1;jettySize=auto;html=1;rounded=0;endArrow=open;startSize=14;endSize=14;sourcePerimeterSpacing=8;targetPerimeterSpacing=8;curved=1;exitX=1;exitY=0.5;exitDx=0;exitDy=0;exitPerimeter=0;entryX=0.5;entryY=0;entryDx=0;entryDy=0;entryPerimeter=0;" edge="1" parent="1" source="5sL8ATBp5mNtQugTuOd_-70" target="5sL8ATBp5mNtQugTuOd_-95">
          <mxGeometry width="120" relative="1" as="geometry">
            <mxPoint x="-406" y="1161" as="sourcePoint" />
            <mxPoint x="-286" y="1161" as="targetPoint" />
            <Array as="points">
              <mxPoint x="-394" y="1003" />
              <mxPoint x="-377" y="1003" />
              <mxPoint x="-377" y="1031" />
              <mxPoint x="-377" y="1131" />
              <mxPoint x="-377" y="1147" />
              <mxPoint x="-84" y="1144" />
              <mxPoint x="-79" y="1156" />
            </Array>
          </mxGeometry>
        </mxCell>
        <mxCell id="5sL8ATBp5mNtQugTuOd_-102" value="Dynamo DB&lt;br&gt;-&lt;br&gt;High Availability&lt;br&gt;read replicas&amp;nbsp;" style="outlineConnect=0;dashed=0;verticalLabelPosition=bottom;verticalAlign=top;align=center;html=1;shape=mxgraph.aws3.dynamo_db;fillColor=#2E73B8;gradientColor=none;hachureGap=4;" vertex="1" parent="1">
          <mxGeometry x="-602" y="1539" width="51" height="52" as="geometry" />
        </mxCell>
        <mxCell id="5sL8ATBp5mNtQugTuOd_-103" value="Holds metadata" style="text;strokeColor=none;fillColor=none;html=1;align=center;verticalAlign=middle;whiteSpace=wrap;rounded=0;hachureGap=4;" vertex="1" parent="1">
          <mxGeometry x="-684" y="1551" width="60" height="30" as="geometry" />
        </mxCell>
        <mxCell id="5sL8ATBp5mNtQugTuOd_-105" value="" style="outlineConnect=0;dashed=0;verticalLabelPosition=bottom;verticalAlign=top;align=center;html=1;shape=mxgraph.aws3.auto_scaling;fillColor=#F58534;gradientColor=none;hachureGap=4;" vertex="1" parent="1">
          <mxGeometry x="-416" y="1430" width="45" height="35" as="geometry" />
        </mxCell>
        <mxCell id="5sL8ATBp5mNtQugTuOd_-109" value="" style="endArrow=none;html=1;rounded=0;startSize=14;endSize=14;sourcePerimeterSpacing=8;targetPerimeterSpacing=8;curved=1;exitX=0.5;exitY=0;exitDx=0;exitDy=0;exitPerimeter=0;entryX=0.5;entryY=1;entryDx=0;entryDy=0;entryPerimeter=0;" edge="1" parent="1" source="5sL8ATBp5mNtQugTuOd_-104" target="5sL8ATBp5mNtQugTuOd_-92">
          <mxGeometry width="50" height="50" relative="1" as="geometry">
            <mxPoint x="-491" y="1349" as="sourcePoint" />
            <mxPoint x="-441" y="1299" as="targetPoint" />
          </mxGeometry>
        </mxCell>
        <mxCell id="5sL8ATBp5mNtQugTuOd_-113" value="Video file&lt;br&gt;Video Tags&lt;br&gt;Thumbnail Generation&lt;br&gt;Multi-res versioning" style="text;html=1;align=center;verticalAlign=middle;resizable=0;points=[];autosize=1;strokeColor=none;fillColor=none;hachureGap=4;" vertex="1" parent="1">
          <mxGeometry x="-1011" y="1462" width="137" height="70" as="geometry" />
        </mxCell>
        <mxCell id="5sL8ATBp5mNtQugTuOd_-114" value="Elemental Mediaconvert&lt;br&gt;-&lt;br&gt;" style="sketch=0;points=[[0,0,0],[0.25,0,0],[0.5,0,0],[0.75,0,0],[1,0,0],[0,1,0],[0.25,1,0],[0.5,1,0],[0.75,1,0],[1,1,0],[0,0.25,0],[0,0.5,0],[0,0.75,0],[1,0.25,0],[1,0.5,0],[1,0.75,0]];outlineConnect=0;fontColor=#232F3E;gradientColor=#F78E04;gradientDirection=north;fillColor=#D05C17;strokeColor=#ffffff;dashed=0;verticalLabelPosition=bottom;verticalAlign=top;align=center;html=1;fontSize=12;fontStyle=0;aspect=fixed;shape=mxgraph.aws4.resourceIcon;resIcon=mxgraph.aws4.elemental_mediaconvert;hachureGap=4;" vertex="1" parent="1">
          <mxGeometry x="-823.5" y="1432" width="62" height="62" as="geometry" />
        </mxCell>
      </root>
    </mxGraphModel>
  </diagram>
</mxfile>
